# xmcd
#
# Track frame offsets:
#	150
#	12637
#	26281
#	37643
#	47062
#	59424
#	70592
#	77639
#	85576
#	94843
#	110637
#	118838
#	128811
#	142162
#	157014
#	169114
#	181230
#	190186
#	202589
#	215649
#	221102
#
# Disc length: 3111 seconds
#
# Revision: 2
# Processed by: cddbd v1.5.2PL0 Copyright (c) Steve Scherf et al.
# Submitted via: audiograbber 1.83.01
#
DISCID=240c2515
DTITLE=циыта цяиба - ека ма акканоуле йаядиес CD3
DYEAR=2015
DGENRE=дглотийа
TTITLE0=лиа лийяг тсекицйопоука
TTITLE1=пийяа то кеме та поукиа
TTITLE2=ст' апосйиа тоу басикийоу
TTITLE3=лиа йомтг йомтоука
TTITLE4=цуяиса выяес йаи выяиа
TTITLE5=дыс' лоу ема жики кахяаио
TTITLE6=самталеяиама
TTITLE7=стгсам сто кацо йаятеяи
TTITLE8=дуо йадемес сто каило соу
TTITLE9=лаяахгйам та демтяа
TTITLE10=ам гхекес ма памтяеутеис
TTITLE11=о памтекгс
TTITLE12=басикийе лоу тяийкыме
TTITLE13=мтакиама
TTITLE14=ежтаина сулпахгсе ле
TTITLE15=йимтеяиа
TTITLE16=то пяасимо ламтгки
TTITLE17=бяусг лоу лакалатемиа
TTITLE18=тфамел потале лоу
TTITLE19=тяеис лауяолатес
TTITLE20=лгко лоу вяусо лоу лгко
EXTD=
EXTT0=
EXTT1=
EXTT2=
EXTT3=
EXTT4=
EXTT5=
EXTT6=
EXTT7=
EXTT8=
EXTT9=
EXTT10=
EXTT11=
EXTT12=
EXTT13=
EXTT14=
EXTT15=
EXTT16=
EXTT17=
EXTT18=
EXTT19=
EXTT20=
PLAYORDER=
